<svg id="Capa_1" enable-background="new 0 0 510 510" height="512" viewBox="0 0 510 510" width="512" xmlns="http://www.w3.org/2000/svg" xmlns:xlink="http://www.w3.org/1999/xlink"><linearGradient id="SVGID_1_" gradientUnits="userSpaceOnUse" x1="121.891" x2="437.441" y1="192.891" y2="508.441"><stop offset="0" stop-color="#fd4755"/><stop offset="1" stop-color="#d2024e"/></linearGradient><linearGradient id="lg1"><stop offset="0" stop-color="#c00148" stop-opacity="0"/><stop offset="1" stop-color="#6d3326"/></linearGradient><linearGradient id="SVGID_2_" gradientUnits="userSpaceOnUse" x1="247.047" x2="134.047" xlink:href="#lg1" y1="208.278" y2="90.278"/><linearGradient id="SVGID_3_" gradientUnits="userSpaceOnUse" x1="348.149" x2="215.134" xlink:href="#lg1" y1="247.851" y2="114.836"/><linearGradient id="SVGID_4_" gradientUnits="userSpaceOnUse" x1="256.237" x2="281.57" xlink:href="#lg1" y1="437.138" y2="265.805"/><linearGradient id="SVGID_5_" gradientUnits="userSpaceOnUse" x1="256.237" x2="281.57" xlink:href="#lg1" y1="344.138" y2="172.805"/><linearGradient id="SVGID_6_" gradientUnits="userSpaceOnUse" x1="256.237" x2="281.57" xlink:href="#lg1" y1="251.138" y2="79.805"/><linearGradient id="lg2"><stop offset="0" stop-color="#eaf6ff"/><stop offset="1" stop-color="#b3dafe"/></linearGradient><linearGradient id="SVGID_7_" gradientUnits="userSpaceOnUse" x1="169.386" x2="215.673" xlink:href="#lg2" y1="32.377" y2="140.379"/><linearGradient id="SVGID_8_" gradientUnits="userSpaceOnUse" x1="255" x2="255" xlink:href="#lg2" y1="310.12" y2="21.069"/><linearGradient id="SVGID_9_" gradientUnits="userSpaceOnUse" x1="493.047" x2="302.547" xlink:href="#lg1" y1="424.069" y2="347.069"/><linearGradient id="SVGID_10_" gradientUnits="userSpaceOnUse" x1="163.649" x2="345.444" y1="292.655" y2="474.449"><stop offset="0" stop-color="#c5715a"/><stop offset="1" stop-color="#883f2e"/></linearGradient><linearGradient id="lg3"><stop offset="0" stop-color="#883f2e" stop-opacity="0"/><stop offset="1" stop-color="#6d3326"/></linearGradient><linearGradient id="SVGID_11_" gradientUnits="userSpaceOnUse" x1="255" x2="255" xlink:href="#lg3" y1="345" y2="296.627"/><linearGradient id="SVGID_12_" gradientUnits="userSpaceOnUse" x1="305.414" x2="274.081" xlink:href="#lg3" y1="429.92" y2="398.586"/><linearGradient id="SVGID_13_" gradientTransform="matrix(-1 0 0 1 522.161 0)" gradientUnits="userSpaceOnUse" x1="317.575" x2="286.242" xlink:href="#lg3" y1="429.92" y2="398.586"/><linearGradient id="SVGID_14_" gradientUnits="userSpaceOnUse" x1="242.998" x2="266.503" xlink:href="#lg2" y1="372.003" y2="395.508"/><linearGradient id="lg4"><stop offset="0" stop-color="#d8ecfe" stop-opacity="0"/><stop offset=".7867" stop-color="#9bd1fe" stop-opacity=".787"/><stop offset="1" stop-color="#8ac9fe"/></linearGradient><linearGradient id="SVGID_15_" gradientUnits="userSpaceOnUse" x1="296.104" x2="270.074" xlink:href="#lg4" y1="337.437" y2="363.467"/><linearGradient id="SVGID_16_" gradientUnits="userSpaceOnUse" x1="198.437" x2="233.795" xlink:href="#lg4" y1="435.103" y2="399.745"/><linearGradient id="SVGID_17_" gradientUnits="userSpaceOnUse" x1="263.503" x2="247.802" xlink:href="#lg2" y1="375.503" y2="391.203"/><linearGradient id="lg5"><stop offset="0" stop-color="#8ac9fe" stop-opacity="0"/><stop offset=".0634" stop-color="#85c2f3" stop-opacity=".063"/><stop offset=".3677" stop-color="#70a3c3" stop-opacity=".368"/><stop offset=".6362" stop-color="#608ca0" stop-opacity=".636"/><stop offset=".8561" stop-color="#577e8b" stop-opacity=".856"/><stop offset="1" stop-color="#537983"/></linearGradient><linearGradient id="SVGID_18_" gradientUnits="userSpaceOnUse" x1="311.605" x2="311.605" xlink:href="#lg5" y1="334" y2="285.885"/><linearGradient id="SVGID_19_" gradientUnits="userSpaceOnUse" x1="198.395" x2="198.395" xlink:href="#lg5" y1="334" y2="285.885"/><linearGradient id="SVGID_20_" gradientUnits="userSpaceOnUse" x1="255" x2="255" xlink:href="#lg2" y1="231.994" y2="310.582"/><linearGradient id="SVGID_21_" gradientUnits="userSpaceOnUse" x1="255" x2="255" xlink:href="#lg4" y1="278.751" y2="298.448"/><linearGradient id="SVGID_22_" gradientUnits="userSpaceOnUse" x1="255" x2="255" y1="456.2" y2="526.713"><stop offset="0" stop-color="#a2e62e"/><stop offset=".1231" stop-color="#97de30"/><stop offset=".3395" stop-color="#79cb36"/><stop offset=".6234" stop-color="#4aab3f"/><stop offset=".9609" stop-color="#09804c"/><stop offset="1" stop-color="#017b4e"/></linearGradient><linearGradient id="SVGID_23_" gradientUnits="userSpaceOnUse" x1="255" x2="255" xlink:href="#lg2" y1="145" y2="190.178"/><linearGradient id="SVGID_24_" gradientUnits="userSpaceOnUse" x1="255" x2="255" xlink:href="#lg5" y1="162.717" y2="224.286"/><g><path d="m464 492h-418v-332l209-122 209 122z" fill="url(#SVGID_1_)"/><path d="m255 38-209 122v113.167l218.834 218.833h199.166v-332z" fill="url(#SVGID_2_)"/><path d="m464 428.756v-130.108l-176.473-176.473-65.054 65.054z" fill="url(#SVGID_3_)"/><path d="m46 399h418v93h-418z" fill="url(#SVGID_4_)"/><path d="m46 306h418v93h-418z" fill="url(#SVGID_5_)"/><path d="m46 213h418v93h-418z" fill="url(#SVGID_6_)"/><g><path d="m454.989 264.563-26.724-98.326c-1.614-5.938-5.503-11.002-10.824-14.094l-150.687-87.554c-7.267-4.223-16.242-4.223-23.509 0l-150.686 87.554c-5.321 3.092-9.21 8.155-10.824 14.094l-26.723 98.326c-1.723 6.339-8.258 10.081-14.597 8.358l-31.637-8.598c-6.339-1.723-10.081-8.258-8.358-14.597l30.069-110.634c3.396-12.492 11.43-22.952 22.621-29.455l177.323-103.033c15.156-8.806 33.984-8.805 49.136.001l177.321 103.031c11.193 6.504 19.226 16.964 22.622 29.454l30.069 110.636c1.723 6.339-2.019 12.874-8.358 14.597l-31.636 8.598c-6.34 1.723-12.875-2.019-14.598-8.358z" fill="url(#SVGID_7_)"/><path d="m485.404 268.626-15.82 4.3c-6.336 1.718-12.868-2.026-14.596-8.363l-26.723-98.323c-1.615-5.945-5.503-11.006-10.821-14.092l-150.687-87.563c-7.272-4.217-16.241-4.217-23.514 0l-150.688 87.553c-5.318 3.096-9.206 8.157-10.821 14.102l-26.723 98.323c-1.718 6.336-8.26 10.08-14.596 8.363l-15.82-4.3 33.193-122.114c1.419-5.236 4.845-9.689 9.535-12.415l177.319-103.034c6.408-3.723 14.308-3.723 20.716 0l177.318 103.034c4.691 2.726 8.116 7.18 9.535 12.415z" fill="url(#SVGID_8_)"/></g><path d="m464 492v-149.833l-90.333-90.334h-19.292v240.167z" fill="url(#SVGID_9_)"/><g><path d="m142.506 276.011h224.989v215.989h-224.989z" fill="url(#SVGID_10_)"/><path d="m142.506 276.011h224.989v69.989h-224.989z" fill="url(#SVGID_11_)"/><path d="m367.495 492v-212.828l-212.828 212.828z" fill="url(#SVGID_12_)"/><path d="m142.506 492v-212.828l212.828 212.828z" fill="url(#SVGID_13_)"/><g><path d="m367.49 276.01v21.86l-194.13 194.13h-30.85v-32.79l183.2-183.2z" fill="url(#SVGID_14_)"/><path d="m269.68 395.68 67.334-67.333-31.82-31.82-67.334 67.333z" fill="url(#SVGID_15_)"/><path d="m232.527 369.194-9.347 9.346-80.67 80.67v32.79h30.85l90.987-90.987z" fill="url(#SVGID_16_)"/><path d="m367.49 459.21v32.79h-30.85l-194.13-194.13v-21.86h41.78l70.71 70.71 31.82 31.82z" fill="url(#SVGID_17_)"/></g><g><path d="m325.709 276.011-69.989 69.989h63.64l48.13-48.13v-21.859z" fill="url(#SVGID_18_)"/><path d="m184.291 276.011h-41.781v21.859l48.13 48.13h63.64z" fill="url(#SVGID_19_)"/></g><g><path d="m366.248 297.758h-222.495c-5.777 0-10.461-4.683-10.461-10.461v-28.181c0-5.777 4.683-10.461 10.461-10.461h222.495c5.777 0 10.461 4.683 10.461 10.461v28.181c0 5.777-4.684 10.461-10.461 10.461z" fill="url(#SVGID_20_)"/><path d="m133.292 274v12.589c0 6.168 4.386 11.169 9.797 11.169h223.822c5.411 0 9.798-5 9.798-11.169v-12.589z" fill="url(#SVGID_21_)"/></g></g><path d="m509.996 484c-.012-1.387-.844-2.893-2.357-4.394-24.046-23.857-128.019-41.804-252.639-41.804-124.619 0-228.593 17.946-252.639 41.804-1.513 1.501-2.345 3.007-2.357 4.394h-.004v6.631c0 10.697 8.672 19.369 19.369 19.369h471.262c10.697 0 19.369-8.672 19.369-19.369v-6.631z" fill="url(#SVGID_22_)"/><g><circle cx="255" cy="154.702" fill="url(#SVGID_23_)" r="46"/><path d="m255 200.702c25.405 0 46-20.595 46-46h-92c0 25.405 20.595 46 46 46z" fill="url(#SVGID_24_)"/></g></g></svg>